<svg width="1114" height="254" viewBox="0 0 1114 254" fill="none" xmlns="http://www.w3.org/2000/svg">
<path d="M118.799 131.37C118.799 131.37 116.757 74.1193 122.8 52.9698C128.843 31.8202 180.61 29.6843 184.4 41.7697C188.19 53.855 184.4 92.8698 184.4 92.8698M118.799 131.37C118.799 139.157 112.487 145.469 104.7 145.469C96.9127 145.469 90.6001 139.157 90.6001 131.37C90.6001 123.583 96.9127 117.27 104.7 117.27C112.487 117.27 118.799 123.583 118.799 131.37ZM184.4 92.8698C184.4 100.657 178.087 106.969 170.3 106.969C162.513 106.969 156.201 100.657 156.201 92.8698C156.201 85.0827 162.513 78.7701 170.3 78.7701C178.087 78.7701 184.4 85.0827 184.4 92.8698Z" stroke="#1DB954" stroke-width="12" stroke-linecap="round" stroke-linejoin="round"/>
<path d="M99.1026 38.997C92.465 36.222 85.3446 34.7854 78.1503 34.7697C70.956 34.7539 63.8294 36.1593 57.1796 38.9052C50.5299 41.6511 44.488 45.6833 39.4009 50.7705C34.3137 55.8577 30.2814 61.8996 27.5356 68.5493C24.7897 75.199 23.3843 82.3256 23.4 89.5199C23.4158 96.7142 24.8524 103.835 27.6274 110.472C30.4023 117.11 34.461 123.134 39.5704 128.199L106.28 200.302C110.378 204.399 115.935 206.7 121.729 206.7C127.524 206.7 133.081 204.399 137.179 200.302L201.089 128.004C211.119 117.715 216.692 103.889 216.6 89.5199C216.56 83.2691 215.449 77.1346 213.37 71.3617" stroke="#1DB954" stroke-width="12" stroke-linecap="round" stroke-linejoin="round"/>
<path d="M296.8 197V51.36H318.14V116.48H384.8V51.36H406.14V197H384.8V124.84H318.14V197H296.8ZM448.767 197V97.56H461.527L466.587 116.04C468.493 112.813 471.133 109.587 474.507 106.36C478.027 103.133 481.987 100.347 486.387 98C490.933 95.5067 495.553 93.8933 500.247 93.16L502.447 108.34C498.633 108.34 494.527 109.147 490.127 110.76C485.727 112.373 481.473 114.427 477.367 116.92C473.407 119.413 470.033 121.98 467.247 124.62V197H448.767ZM514.626 245.4L517.706 229.34C525.919 229.047 532.886 227.213 538.606 223.84C544.472 220.467 549.386 216.213 553.346 211.08C557.306 206.093 560.532 201.033 563.026 195.9L518.366 97.56H537.946L571.606 172.14L597.566 97.56H605.926L568.306 200.3C565.079 209.1 560.752 216.873 555.326 223.62C549.899 230.367 543.666 235.647 536.626 239.46C529.732 243.273 522.399 245.253 514.626 245.4ZM660.795 199.64C654.782 199.64 649.722 197.88 645.615 194.36C641.508 190.84 639.455 184.9 639.455 176.54V105.48L621.635 101.96V97.56H639.455V89.64L657.935 76.22V97.56H684.115V105.48H657.935V177.64C657.935 181.747 658.742 184.973 660.355 187.32C662.115 189.667 665.342 190.84 670.035 190.84C672.088 190.84 674.362 190.547 676.855 189.96C679.348 189.227 681.768 188.42 684.115 187.54V193.7C680.888 195.167 677.222 196.487 673.115 197.66C669.155 198.98 665.048 199.64 660.795 199.64ZM717.358 197V46.74H735.178V111.64C740.604 106.507 746.104 102.547 751.678 99.76C757.251 96.8267 763.264 95.36 769.718 95.36C773.238 95.36 776.978 96.24 780.938 98C785.044 99.76 788.491 103.06 791.278 107.9C794.211 112.593 795.678 119.487 795.678 128.58V197H777.198V130.78C777.198 123.887 775.951 118.607 773.458 114.94C771.111 111.127 766.638 109.22 760.038 109.22C756.811 109.22 752.998 110.173 748.598 112.08C744.344 113.84 740.091 116.773 735.838 120.88V197H717.358ZM821.182 245.4L824.262 229.34C832.475 229.047 839.442 227.213 845.162 223.84C851.029 220.467 855.942 216.213 859.902 211.08C863.862 206.093 867.089 201.033 869.582 195.9L824.922 97.56H844.502L878.162 172.14L904.122 97.56H912.482L874.862 200.3C871.635 209.1 867.309 216.873 861.882 223.62C856.455 230.367 850.222 235.647 843.182 239.46C836.289 243.273 828.955 245.253 821.182 245.4ZM944.251 197V127.92C944.251 122.787 943.518 118.68 942.051 115.6C940.731 112.373 939.191 109.88 937.431 108.12C935.671 106.213 934.205 104.82 933.031 103.94L944.251 95.58L961.851 111.64C968.158 106.36 973.951 102.253 979.231 99.32C984.511 96.3867 990.085 94.92 995.951 94.92C1003.28 94.92 1008.78 96.7533 1012.45 100.42C1016.12 103.94 1018.54 108.047 1019.71 112.74C1021.32 110.98 1023.74 108.707 1026.97 105.92C1030.34 102.987 1034.45 100.42 1039.29 98.22C1044.13 96.02 1049.48 94.92 1055.35 94.92C1061.07 94.92 1065.62 96.1667 1068.99 98.66C1072.51 101.153 1075.15 104.453 1076.91 108.56C1078.67 112.52 1079.84 116.773 1080.43 121.32C1081.02 125.867 1081.31 130.193 1081.31 134.3V197H1062.83V132.54C1062.83 128.727 1062.54 124.987 1061.95 121.32C1061.51 117.507 1060.19 114.353 1057.99 111.86C1055.79 109.367 1051.98 108.12 1046.55 108.12C1042 108.12 1037.31 109.44 1032.47 112.08C1027.63 114.573 1024.18 117.433 1022.13 120.66V197H1003.43V131.44C1003.43 124.107 1002.33 118.387 1000.13 114.28C997.931 110.173 993.971 108.12 988.251 108.12C984.291 108.12 980.331 109.147 976.371 111.2C972.411 113.107 969.111 115.16 966.471 117.36C963.978 119.413 962.731 120.66 962.731 121.1V197H944.251Z" fill="#1DB954"/>
</svg>
